<mxfile host="65bd71144e">
    <diagram id="sv0o1vHodUrSKMM-ZXjP" name="Page-1">
        <mxGraphModel dx="2525" dy="817" grid="1" gridSize="10" guides="1" tooltips="1" connect="1" arrows="1" fold="1" page="1" pageScale="1" pageWidth="850" pageHeight="1100" math="0" shadow="0">
            <root>
                <mxCell id="0"/>
                <mxCell id="1" parent="0"/>
                <mxCell id="40" value="" style="group" parent="1" vertex="1" connectable="0">
                    <mxGeometry x="-780" y="380" width="190" height="190" as="geometry"/>
                </mxCell>
                <mxCell id="10" value="" style="whiteSpace=wrap;html=1;aspect=fixed;" parent="40" vertex="1">
                    <mxGeometry width="190" height="190" as="geometry"/>
                </mxCell>
                <mxCell id="2" value="" style="verticalLabelPosition=bottom;html=1;verticalAlign=top;align=center;strokeColor=none;fillColor=#00BEF2;shape=mxgraph.azure.laptop;pointerEvents=1;" parent="40" vertex="1">
                    <mxGeometry x="26.5" y="128.75" width="50" height="30" as="geometry"/>
                </mxCell>
                <mxCell id="4" value="" style="verticalLabelPosition=bottom;html=1;verticalAlign=top;align=center;strokeColor=none;fillColor=#00BEF2;shape=mxgraph.azure.mobile;pointerEvents=1;" parent="40" vertex="1">
                    <mxGeometry x="34" y="48.75" width="35" height="50" as="geometry"/>
                </mxCell>
                <mxCell id="5" value="" style="endArrow=none;html=1;exitX=0.5;exitY=1;exitDx=0;exitDy=0;entryX=0.5;entryY=0;entryDx=0;entryDy=0;" parent="40" source="10" target="10" edge="1">
                    <mxGeometry width="50" height="50" relative="1" as="geometry">
                        <mxPoint x="96" y="178.75" as="sourcePoint"/>
                        <mxPoint x="96" y="8.75" as="targetPoint"/>
                    </mxGeometry>
                </mxCell>
                <mxCell id="6" value="" style="aspect=fixed;perimeter=ellipsePerimeter;html=1;align=center;shadow=0;dashed=0;spacingTop=3;image;image=img/lib/active_directory/web_server.svg;" parent="40" vertex="1">
                    <mxGeometry x="116" y="48.75" width="74" height="92.5" as="geometry"/>
                </mxCell>
                <mxCell id="7" style="edgeStyle=none;html=1;entryX=0;entryY=0.75;entryDx=0;entryDy=0;exitX=0.883;exitY=0.486;exitDx=0;exitDy=0;exitPerimeter=0;" parent="40" source="2" target="6" edge="1">
                    <mxGeometry relative="1" as="geometry">
                        <mxPoint x="126" y="108.75" as="targetPoint"/>
                    </mxGeometry>
                </mxCell>
                <mxCell id="9" style="edgeStyle=none;html=1;" parent="40" source="4" target="6" edge="1">
                    <mxGeometry relative="1" as="geometry">
                        <mxPoint x="116" y="88.75" as="targetPoint"/>
                    </mxGeometry>
                </mxCell>
                <mxCell id="23" value="&lt;font style=&quot;font-size: 14px;&quot;&gt;Web&lt;br&gt;Interface&lt;/font&gt;" style="text;strokeColor=none;fillColor=none;html=1;fontSize=24;fontStyle=1;verticalAlign=middle;align=center;" parent="40" vertex="1">
                    <mxGeometry x="1.5" width="100" height="40" as="geometry"/>
                </mxCell>
                <mxCell id="34" value="&lt;font style=&quot;font-size: 14px;&quot;&gt;Web&lt;br&gt;Server&lt;/font&gt;" style="text;strokeColor=none;fillColor=none;html=1;fontSize=24;fontStyle=1;verticalAlign=middle;align=center;" parent="40" vertex="1">
                    <mxGeometry x="90" width="100" height="40" as="geometry"/>
                </mxCell>
                <mxCell id="41" value="" style="group;strokeColor=default;" parent="1" vertex="1" connectable="0">
                    <mxGeometry x="-190" y="710" width="260" height="250" as="geometry"/>
                </mxCell>
                <mxCell id="12" value="" style="shape=cylinder3;whiteSpace=wrap;html=1;boundedLbl=1;backgroundOutline=1;size=15;" parent="41" vertex="1">
                    <mxGeometry x="130" y="30" width="100" height="140" as="geometry"/>
                </mxCell>
                <mxCell id="13" value="" style="shape=flexArrow;endArrow=classic;startArrow=classic;html=1;" parent="41" edge="1">
                    <mxGeometry width="100" height="100" relative="1" as="geometry">
                        <mxPoint x="260" y="165" as="sourcePoint"/>
                        <mxPoint x="260" y="35" as="targetPoint"/>
                    </mxGeometry>
                </mxCell>
                <mxCell id="36" value="Vertical Scaling" style="edgeLabel;html=1;align=center;verticalAlign=middle;resizable=0;points=[];fontSize=14;" parent="13" vertex="1" connectable="0">
                    <mxGeometry x="-0.3396" y="-2" relative="1" as="geometry">
                        <mxPoint y="-12" as="offset"/>
                    </mxGeometry>
                </mxCell>
                <mxCell id="18" value="" style="shape=cylinder3;whiteSpace=wrap;html=1;boundedLbl=1;backgroundOutline=1;size=15;" parent="41" vertex="1">
                    <mxGeometry x="100" y="40" width="100" height="140" as="geometry"/>
                </mxCell>
                <mxCell id="19" value="" style="shape=cylinder3;whiteSpace=wrap;html=1;boundedLbl=1;backgroundOutline=1;size=15;" parent="41" vertex="1">
                    <mxGeometry x="70" y="50" width="100" height="140" as="geometry"/>
                </mxCell>
                <mxCell id="20" value="" style="shape=cylinder3;whiteSpace=wrap;html=1;boundedLbl=1;backgroundOutline=1;size=15;" parent="41" vertex="1">
                    <mxGeometry x="40" y="60" width="100" height="140" as="geometry"/>
                </mxCell>
                <mxCell id="21" value="" style="shape=cylinder3;whiteSpace=wrap;html=1;boundedLbl=1;backgroundOutline=1;size=15;" parent="41" vertex="1">
                    <mxGeometry y="70" width="100" height="140" as="geometry"/>
                </mxCell>
                <mxCell id="22" value="SQLite" style="text;strokeColor=none;fillColor=none;html=1;fontSize=24;fontStyle=1;verticalAlign=middle;align=center;" parent="41" vertex="1">
                    <mxGeometry x="40" width="100" height="40" as="geometry"/>
                </mxCell>
                <mxCell id="35" value="" style="shape=flexArrow;endArrow=classic;startArrow=classic;html=1;fontSize=14;" parent="41" edge="1">
                    <mxGeometry width="100" height="100" relative="1" as="geometry">
                        <mxPoint x="40" y="250" as="sourcePoint"/>
                        <mxPoint x="240" y="180" as="targetPoint"/>
                    </mxGeometry>
                </mxCell>
                <mxCell id="37" value="Horizontal Scaling" style="edgeLabel;html=1;align=center;verticalAlign=middle;resizable=0;points=[];fontSize=14;rotation=340;" parent="35" vertex="1" connectable="0">
                    <mxGeometry x="-0.2993" y="1" relative="1" as="geometry">
                        <mxPoint x="30" y="-14" as="offset"/>
                    </mxGeometry>
                </mxCell>
                <mxCell id="51" value="" style="group;strokeWidth=2;strokeColor=default;" parent="1" vertex="1" connectable="0">
                    <mxGeometry x="-110" y="350" width="325" height="270" as="geometry"/>
                </mxCell>
                <mxCell id="42" value="" style="image;html=1;image=img/lib/clip_art/computers/Server_Rack_128x128.png;fontSize=14;" parent="51" vertex="1">
                    <mxGeometry x="144.44444444444446" y="25" width="180.55555555555557" height="180" as="geometry"/>
                </mxCell>
                <mxCell id="43" value="" style="image;html=1;image=img/lib/clip_art/computers/Server_Rack_128x128.png;fontSize=14;" parent="51" vertex="1">
                    <mxGeometry x="84.25925925925927" y="50" width="180.55555555555557" height="180" as="geometry"/>
                </mxCell>
                <mxCell id="44" value="" style="image;html=1;image=img/lib/clip_art/computers/Server_Rack_128x128.png;fontSize=14;" parent="51" vertex="1">
                    <mxGeometry x="24.074074074074076" y="70" width="180.55555555555557" height="180" as="geometry"/>
                </mxCell>
                <mxCell id="45" value="" style="shape=flexArrow;endArrow=classic;startArrow=classic;html=1;fontSize=14;entryX=0.97;entryY=0.889;entryDx=0;entryDy=0;entryPerimeter=0;" parent="51" target="42" edge="1">
                    <mxGeometry width="100" height="100" relative="1" as="geometry">
                        <mxPoint x="108.33333333333333" y="270" as="sourcePoint"/>
                        <mxPoint x="349.0740740740741" y="200" as="targetPoint"/>
                    </mxGeometry>
                </mxCell>
                <mxCell id="46" value="Horizontal Scaling" style="edgeLabel;html=1;align=center;verticalAlign=middle;resizable=0;points=[];fontSize=14;rotation=-26;" parent="45" vertex="1" connectable="0">
                    <mxGeometry x="-0.2993" y="1" relative="1" as="geometry">
                        <mxPoint x="30" y="-14" as="offset"/>
                    </mxGeometry>
                </mxCell>
                <mxCell id="50" value="&lt;font style=&quot;font-size: 18px;&quot;&gt;Request Processing&lt;br&gt;Servers&lt;/font&gt;" style="text;html=1;align=center;verticalAlign=middle;resizable=0;points=[];autosize=1;strokeColor=none;fillColor=none;fontSize=14;" parent="51" vertex="1">
                    <mxGeometry width="180" height="60" as="geometry"/>
                </mxCell>
                <mxCell id="48" value="" style="shape=flexArrow;endArrow=classic;startArrow=classic;html=1;" parent="51" edge="1">
                    <mxGeometry width="100" height="100" relative="1" as="geometry">
                        <mxPoint x="54.47" y="230" as="sourcePoint"/>
                        <mxPoint x="54.47" y="100" as="targetPoint"/>
                    </mxGeometry>
                </mxCell>
                <mxCell id="49" value="Vertical Scaling" style="edgeLabel;html=1;align=center;verticalAlign=middle;resizable=0;points=[];fontSize=14;" parent="48" vertex="1" connectable="0">
                    <mxGeometry x="-0.3396" y="-2" relative="1" as="geometry">
                        <mxPoint y="-12" as="offset"/>
                    </mxGeometry>
                </mxCell>
                <mxCell id="54" value="" style="endArrow=classic;html=1;fontSize=18;strokeWidth=4;" parent="1" edge="1">
                    <mxGeometry width="50" height="50" relative="1" as="geometry">
                        <mxPoint x="-700" y="475" as="sourcePoint"/>
                        <mxPoint x="-470" y="475" as="targetPoint"/>
                    </mxGeometry>
                </mxCell>
                <mxCell id="64" value="" style="group;strokeColor=default;" parent="1" vertex="1" connectable="0">
                    <mxGeometry x="-480" y="340" width="240" height="240" as="geometry"/>
                </mxCell>
                <mxCell id="52" value="" style="outlineConnect=0;dashed=0;verticalLabelPosition=bottom;verticalAlign=top;align=center;html=1;shape=mxgraph.aws3.classic_load_balancer;fillColor=#F58534;gradientColor=none;fontSize=18;strokeWidth=1;" parent="64" vertex="1">
                    <mxGeometry x="16.363636363636363" width="152.7272727272727" height="174.54545454545453" as="geometry"/>
                </mxCell>
                <mxCell id="63" value="&lt;span style=&quot;font-size: 21px;&quot;&gt;&lt;b&gt;Multiple Load Balancers &lt;br&gt;with Fall Backs Setup&lt;/b&gt;&lt;/span&gt;" style="text;html=1;align=center;verticalAlign=middle;resizable=0;points=[];autosize=1;strokeColor=none;fillColor=none;" parent="64" vertex="1">
                    <mxGeometry x="-15.002727272727274" y="174.54545454545453" width="270" height="60" as="geometry"/>
                </mxCell>
                <mxCell id="65" value="" style="endArrow=classic;startArrow=classic;html=1;strokeWidth=3;entryX=0.005;entryY=0.493;entryDx=0;entryDy=0;entryPerimeter=0;" parent="1" target="50" edge="1">
                    <mxGeometry width="50" height="50" relative="1" as="geometry">
                        <mxPoint x="-240" y="380" as="sourcePoint"/>
                        <mxPoint x="-270" y="570" as="targetPoint"/>
                    </mxGeometry>
                </mxCell>
                <mxCell id="76" style="edgeStyle=none;html=1;strokeWidth=3;fontSize=16;startArrow=classic;startFill=1;" parent="1" source="72" edge="1">
                    <mxGeometry relative="1" as="geometry">
                        <mxPoint x="60" y="350" as="targetPoint"/>
                    </mxGeometry>
                </mxCell>
                <mxCell id="72" value="&lt;font style=&quot;font-size: 16px;&quot;&gt;Cloud CDN&lt;br&gt;Or&lt;br&gt;Object Storage&lt;br&gt;&lt;/font&gt;" style="sketch=0;html=1;verticalAlign=top;labelPosition=center;verticalLabelPosition=bottom;align=center;spacingTop=-6;fontSize=11;fontStyle=1;fontColor=#999999;shape=image;aspect=fixed;imageAspect=0;image=data:image/svg+xml,PHN2ZyB4bWxucz0iaHR0cDovL3d3dy53My5vcmcvMjAwMC9zdmciIHhtbG5zOnY9Imh0dHBzOi8vdmVjdGEuaW8vbmFubyIgd2lkdGg9IjIwIiBoZWlnaHQ9IjIwIiB2aWV3Qm94PSIwIDAgMjAgMjAiPiYjeGE7CTxzdHlsZSB0eXBlPSJ0ZXh0L2NzcyI+JiN4YTsJLnN0MHtmaWxsOiM0Mjg1ZjQ7fSYjeGE7CS5zdDF7ZmlsbDojNjY5ZGY2O30mI3hhOwkuc3Qye2ZpbGw6I2FlY2JmYTt9JiN4YTsJPC9zdHlsZT4mI3hhOwk8cGF0aCBjbGFzcz0ic3QxIiBkPSJNMTMuMTMgNS42M1YzLjIxTDEwIDB2Mi40MXptMy43NSA3LjVMMjAgMTBoLTIuNWwtMy4xMiAzLjEzem0tMTMuNzUgMEwwIDEwaDIuNWwzLjEzIDMuMTN6bTEwIDEuMjV2Mi40MUwxMCAyMHYtMi40MXoiIGZpbGwtcnVsZT0iZXZlbm9kZCIvPiYjeGE7CTxwYXRoIGNsYXNzPSJzdDIiIGQ9Ik02Ljg4IDUuNjNMMTAgMi40MVYwTDYuODggMy4yMXpNMTcuNSAxMEgyMGwtMy4xMi0zLjEyaC0yLjV6bS0xNSAwSDBsMy4xMy0zLjEyaDIuNXptNC4zOCA0LjM4TDEwIDE3LjU5VjIwbC0zLjEyLTMuMjF6bTAtNy41aDYuMjV2Ni4yNUg2Ljg4eiIgZmlsbC1ydWxlPSJldmVub2RkIi8+JiN4YTsJPHBhdGggY2xhc3M9InN0MSIgZD0iTTYuODggMTMuMTNsNi4yNS02LjI1djYuMjV6IiBmaWxsLXJ1bGU9ImV2ZW5vZGQiLz4mI3hhOwk8cGF0aCBjbGFzcz0ic3QwIiBkPSJNMTAgMTBsMy4xMy0zLjEydjYuMjV6IiBmaWxsLXJ1bGU9ImV2ZW5vZGQiLz4mI3hhOzwvc3ZnPg==;strokeColor=default;strokeWidth=0;" parent="1" vertex="1">
                    <mxGeometry x="-445" y="90" width="120" height="120" as="geometry"/>
                </mxCell>
                <mxCell id="73" value="" style="endArrow=classic;html=1;strokeWidth=3;startArrow=classic;startFill=1;" parent="1" target="72" edge="1">
                    <mxGeometry width="50" height="50" relative="1" as="geometry">
                        <mxPoint x="-710" y="380" as="sourcePoint"/>
                        <mxPoint x="-660" y="330" as="targetPoint"/>
                    </mxGeometry>
                </mxCell>
                <mxCell id="78" value="" style="edgeStyle=none;orthogonalLoop=1;jettySize=auto;html=1;strokeWidth=3;fontSize=16;startArrow=classic;startFill=1;" parent="1" edge="1">
                    <mxGeometry width="100" relative="1" as="geometry">
                        <mxPoint x="-40" y="710" as="sourcePoint"/>
                        <mxPoint x="50" y="620" as="targetPoint"/>
                        <Array as="points"/>
                    </mxGeometry>
                </mxCell>
                <mxCell id="83" value="" style="edgeStyle=none;orthogonalLoop=1;jettySize=auto;html=1;strokeWidth=3;fontSize=16;startArrow=classic;startFill=1;" parent="1" edge="1">
                    <mxGeometry width="100" relative="1" as="geometry">
                        <mxPoint x="70" y="930" as="sourcePoint"/>
                        <mxPoint x="450" y="935" as="targetPoint"/>
                        <Array as="points"/>
                    </mxGeometry>
                </mxCell>
                <mxCell id="84" value="" style="group;strokeColor=default;strokeWidth=2;" parent="1" vertex="1" connectable="0">
                    <mxGeometry x="450" y="705" width="330" height="360" as="geometry"/>
                </mxCell>
                <mxCell id="80" value="Mixtral LLM" style="text;html=1;align=center;verticalAlign=middle;resizable=0;points=[];autosize=1;strokeColor=none;fillColor=none;fontSize=16;strokeWidth=2;" parent="84" vertex="1">
                    <mxGeometry x="81.93363844393593" width="110" height="30" as="geometry"/>
                </mxCell>
                <mxCell id="114" value="" style="group" parent="84" vertex="1" connectable="0">
                    <mxGeometry x="20" y="75" width="260" height="185" as="geometry"/>
                </mxCell>
                <mxCell id="105" value="" style="aspect=fixed;html=1;points=[];align=center;image;fontSize=12;image=img/lib/azure2/ai_machine_learning/Batch_AI.svg;strokeColor=default;strokeWidth=9;" parent="114" vertex="1">
                    <mxGeometry x="174.0139211136891" width="85.9860788863109" height="121.80974477958237" as="geometry"/>
                </mxCell>
                <mxCell id="109" value="" style="aspect=fixed;html=1;points=[];align=center;image;fontSize=12;image=img/lib/azure2/ai_machine_learning/Batch_AI.svg;strokeColor=default;strokeWidth=9;" parent="114" vertex="1">
                    <mxGeometry x="139.21113689095128" y="11.746031746031747" width="85.9860788863109" height="121.80974477958237" as="geometry"/>
                </mxCell>
                <mxCell id="110" value="" style="aspect=fixed;html=1;points=[];align=center;image;fontSize=12;image=img/lib/azure2/ai_machine_learning/Batch_AI.svg;strokeColor=default;strokeWidth=9;" parent="114" vertex="1">
                    <mxGeometry x="104.40835266821345" y="23.492063492063494" width="85.9860788863109" height="121.80974477958237" as="geometry"/>
                </mxCell>
                <mxCell id="111" value="" style="aspect=fixed;html=1;points=[];align=center;image;fontSize=12;image=img/lib/azure2/ai_machine_learning/Batch_AI.svg;strokeColor=default;strokeWidth=9;" parent="114" vertex="1">
                    <mxGeometry x="67.06496519721571" y="35.23809523809524" width="85.9860788863109" height="121.80974477958237" as="geometry"/>
                </mxCell>
                <mxCell id="112" value="" style="aspect=fixed;html=1;points=[];align=center;image;fontSize=12;image=img/lib/azure2/ai_machine_learning/Batch_AI.svg;strokeColor=default;strokeWidth=9;" parent="114" vertex="1">
                    <mxGeometry x="34.80278422273782" y="46.98412698412699" width="85.9860788863109" height="121.80974477958237" as="geometry"/>
                </mxCell>
                <mxCell id="113" value="" style="aspect=fixed;html=1;points=[];align=center;image;fontSize=12;image=img/lib/azure2/ai_machine_learning/Batch_AI.svg;strokeColor=default;strokeWidth=9;" parent="114" vertex="1">
                    <mxGeometry y="61.66666666666667" width="85.9860788863109" height="121.80974477958237" as="geometry"/>
                </mxCell>
                <mxCell id="115" value="" style="shape=flexArrow;endArrow=classic;startArrow=classic;html=1;fontSize=14;" parent="114" edge="1">
                    <mxGeometry width="100" height="100" relative="1" as="geometry">
                        <mxPoint x="45" y="203.55999999999995" as="sourcePoint"/>
                        <mxPoint x="245" y="133.55999999999995" as="targetPoint"/>
                    </mxGeometry>
                </mxCell>
                <mxCell id="116" value="Horizontal Scaling" style="edgeLabel;html=1;align=center;verticalAlign=middle;resizable=0;points=[];fontSize=14;rotation=340;" parent="115" vertex="1" connectable="0">
                    <mxGeometry x="-0.2993" y="1" relative="1" as="geometry">
                        <mxPoint x="30" y="-14" as="offset"/>
                    </mxGeometry>
                </mxCell>
                <mxCell id="117" value="" style="shape=flexArrow;endArrow=classic;startArrow=classic;html=1;" parent="84" edge="1">
                    <mxGeometry width="100" height="100" relative="1" as="geometry">
                        <mxPoint x="300" y="205" as="sourcePoint"/>
                        <mxPoint x="300" y="75" as="targetPoint"/>
                    </mxGeometry>
                </mxCell>
                <mxCell id="118" value="Vertical Scaling" style="edgeLabel;html=1;align=center;verticalAlign=middle;resizable=0;points=[];fontSize=14;" parent="117" vertex="1" connectable="0">
                    <mxGeometry x="-0.3396" y="-2" relative="1" as="geometry">
                        <mxPoint y="-12" as="offset"/>
                    </mxGeometry>
                </mxCell>
                <mxCell id="85" value="" style="group;strokeColor=default;" parent="1" vertex="1" connectable="0">
                    <mxGeometry x="440" y="370" width="240" height="250" as="geometry"/>
                </mxCell>
                <mxCell id="81" value="" style="outlineConnect=0;dashed=0;verticalLabelPosition=bottom;verticalAlign=top;align=center;html=1;shape=mxgraph.aws3.sqs;fillColor=#D9A741;gradientColor=none;strokeColor=default;strokeWidth=0;fontSize=16;" parent="85" vertex="1">
                    <mxGeometry y="38.5" width="240" height="211.5" as="geometry"/>
                </mxCell>
                <mxCell id="82" value="Simple Queue Service" style="text;html=1;align=center;verticalAlign=middle;resizable=0;points=[];autosize=1;strokeColor=none;fillColor=none;fontSize=16;" parent="85" vertex="1">
                    <mxGeometry x="30" width="180" height="30" as="geometry"/>
                </mxCell>
                <mxCell id="86" value="" style="edgeStyle=none;orthogonalLoop=1;jettySize=auto;html=1;strokeWidth=3;fontSize=16;startArrow=classic;startFill=1;" parent="1" edge="1">
                    <mxGeometry width="100" relative="1" as="geometry">
                        <mxPoint x="220" y="490" as="sourcePoint"/>
                        <mxPoint x="440" y="490" as="targetPoint"/>
                        <Array as="points"/>
                    </mxGeometry>
                </mxCell>
                <mxCell id="87" value="" style="edgeStyle=none;orthogonalLoop=1;jettySize=auto;html=1;strokeWidth=3;fontSize=16;startArrow=classic;startFill=1;entryX=0.519;entryY=-0.079;entryDx=0;entryDy=0;entryPerimeter=0;" parent="1" target="80" edge="1">
                    <mxGeometry width="100" relative="1" as="geometry">
                        <mxPoint x="580" y="620" as="sourcePoint"/>
                        <mxPoint x="640" y="650" as="targetPoint"/>
                        <Array as="points"/>
                    </mxGeometry>
                </mxCell>
                <mxCell id="88" value="&lt;font size=&quot;1&quot; style=&quot;&quot;&gt;&lt;b style=&quot;font-size: 55px;&quot;&gt;FlashHub&lt;/b&gt;&lt;/font&gt;" style="text;html=1;align=center;verticalAlign=middle;resizable=0;points=[];autosize=1;strokeColor=none;fillColor=none;fontSize=16;strokeWidth=9;" parent="1" vertex="1">
                    <mxGeometry x="-145" y="25" width="270" height="80" as="geometry"/>
                </mxCell>
            </root>
        </mxGraphModel>
    </diagram>
</mxfile>